HIERARCHY
ROOT root
{
	OFFSET 0.000000 0.000000 0.000000
	CHANNELS 6 Xposition Yposition Zposition Zrotation Yrotation Xrotation
	JOINT lhip
	{
		OFFSET 0.058581 -0.082280 -0.017664
		CHANNELS 3 Zrotation Yrotation Xrotation
		JOINT lknee
		{
			OFFSET 0.043451 -0.386469 0.008037
			CHANNELS 3 Zrotation Yrotation Xrotation
			JOINT lankle
			{
				OFFSET -0.014790 -0.426874 -0.037428
				CHANNELS 3 Zrotation Yrotation Xrotation
				JOINT ltoe
				{
					OFFSET 0.041054 -0.060286 0.122042
					CHANNELS 3 Zrotation Yrotation Xrotation
					End Site
					{
						OFFSET 0.000000 0.000000 0.000000
					}
				}
			}
		}
	}
	JOINT rhip
	{
		OFFSET -0.060310 -0.090513 -0.013543
		CHANNELS 3 Zrotation Yrotation Xrotation
		JOINT rknee
		{
			OFFSET -0.043257 -0.383688 -0.004843
			CHANNELS 3 Zrotation Yrotation Xrotation
			JOINT rankle
			{
				OFFSET 0.019056 -0.420046 -0.034562
				CHANNELS 3 Zrotation Yrotation Xrotation
				JOINT rtoe
				{
					OFFSET -0.034840 -0.062106 0.130323
					CHANNELS 3 Zrotation Yrotation Xrotation
					End Site
					{
						OFFSET 0.000000 0.000000 0.000000
					}
				}
			}
		}
	}
	JOINT lowerback
	{
		OFFSET 0.004439 0.124404 -0.038385
		CHANNELS 3 Zrotation Yrotation Xrotation
		JOINT upperback
		{
			OFFSET 0.004488 0.137956 0.026820
			CHANNELS 3 Zrotation Yrotation Xrotation
			JOINT chest
			{
				OFFSET -0.002265 0.056032 0.002855
				CHANNELS 3 Zrotation Yrotation Xrotation
				JOINT lowerneck
				{
					OFFSET -0.013390 0.211636 -0.033468
					CHANNELS 3 Zrotation Yrotation Xrotation
					JOINT upperneck
					{
						OFFSET 0.010113 0.088937 0.050410
						CHANNELS 3 Zrotation Yrotation Xrotation
						End Site
						{
							OFFSET 0.000000 0.000000 0.000000
						}
					}
				}
				JOINT lclavicle
				{
					OFFSET 0.071702 0.114000 -0.018898
					CHANNELS 3 Zrotation Yrotation Xrotation
					JOINT lshoulder
					{
						OFFSET 0.122921 0.045205 -0.019046
						CHANNELS 3 Zrotation Yrotation Xrotation
						JOINT lelbow
						{
							OFFSET 0.255332 -0.015649 -0.022946
							CHANNELS 3 Zrotation Yrotation Xrotation
							JOINT lwrist
							{
								OFFSET 0.265709 0.012698 -0.007375
								CHANNELS 3 Zrotation Yrotation Xrotation
								End Site
								{
									OFFSET 0.000000 0.000000 0.000000
								}
							}
						}
					}
				}
				JOINT rclavicle
				{
					OFFSET -0.082954 0.112472 -0.023707
					CHANNELS 3 Zrotation Yrotation Xrotation
					JOINT rshoulder
					{
						OFFSET -0.113228 0.046853 -0.008472
						CHANNELS 3 Zrotation Yrotation Xrotation
						JOINT relbow
						{
							OFFSET -0.260127 -0.014369 -0.031269
							CHANNELS 3 Zrotation Yrotation Xrotation
							JOINT rwrist
							{
								OFFSET -0.269108 0.006794 -0.006027
								CHANNELS 3 Zrotation Yrotation Xrotation
								End Site
								{
									OFFSET 0.000000 0.000000 0.000000
								}
							}
						}
					}
				}
			}
		}
	}
}
MOTION
Frames: 13
Frame Time: 0.033333
0.019092 0.467869 1.006142 177.795192 -1.631212 83.734392 4.722034 1.731117 7.466352 -5.083018 -4.333639 1.379821 -0.864285 8.909365 -5.090852 0.000000 -0.000000 0.000000 -6.208196 -2.829782 5.635063 3.039654 -1.421747 7.252173 3.858080 -4.970829 -8.071387 0.000000 -0.000000 0.000000 0.497902 0.348667 4.314122 -0.899528 -2.359068 4.322375 -0.888146 -0.075192 -0.304242 2.650583 -0.988077 -2.699555 5.099998 -1.605281 -3.946810 -27.543152 6.525191 -1.767052 -58.132073 -3.338232 7.009531 7.543448 -16.746723 -3.088996 -12.667237 -16.377652 -6.873070 26.122930 0.428061 2.353286 57.395821 4.225571 13.241372 -5.104431 20.118938 1.488150 16.023397 12.914940 -4.758103 
0.019159 0.467995 1.005998 177.822821 -1.600429 83.735103 4.799204 1.710585 7.230546 -5.176810 -4.200928 1.841813 -0.919390 8.853868 -5.280831 0.000000 -0.000000 0.000000 -6.143770 -2.845816 5.659997 2.986751 -1.387757 7.208155 3.970820 -4.889252 -8.008640 0.000000 -0.000000 0.000000 0.466786 0.323880 4.226184 -0.884262 -2.406681 4.453284 -0.881274 -0.027816 -0.314050 2.706833 -1.015962 -2.854388 5.086838 -1.566203 -3.795594 -27.460058 6.479515 -1.738749 -58.313243 -3.393254 6.875328 7.617240 -16.364378 -3.402606 -12.296455 -16.390145 -7.333891 26.201372 0.386551 2.393808 57.565518 4.306251 12.969910 -5.672070 19.578788 0.418783 15.926724 13.086514 -5.320184 
0.019072 0.468493 1.005866 177.835841 -1.596756 83.631493 4.796878 1.748235 7.434830 -5.169075 -4.307347 1.714794 -0.873294 8.845922 -5.198239 0.000000 -0.000000 0.000000 -6.181626 -2.914043 5.798151 3.015479 -1.373217 7.278531 3.860282 -5.001909 -8.145731 0.000000 -0.000000 0.000000 0.436506 0.323539 4.186778 -0.864163 -2.437232 4.607009 -0.862874 -0.060789 -0.291973 2.702521 -0.997195 -2.860501 5.105593 -1.566304 -3.855189 -27.739405 6.348714 -1.672308 -58.188065 -3.546323 6.664924 7.895017 -15.795005 -3.973036 -12.397713 -16.474280 -7.479242 26.379047 0.373436 2.447885 57.446258 4.399927 12.572729 -6.193700 19.219022 -0.825157 16.180863 13.260303 -6.184675 
0.019084 0.468466 1.005757 177.799406 -1.594109 83.625320 4.811837 1.828043 7.528150 -5.151179 -4.445538 1.558428 -0.805875 8.910322 -5.191312 0.000000 -0.000000 0.000000 -6.192343 -3.013756 5.724298 3.036326 -1.242986 7.418741 3.786066 -5.025396 -8.150600 0.000000 -0.000000 0.000000 0.356410 0.435504 4.165603 -0.816091 -2.424429 4.666192 -0.858200 -0.104944 -0.299479 2.762269 -0.930740 -3.104533 5.180920 -1.562148 -3.650194 -28.047793 6.188295 -1.679922 -57.358008 -3.744499 6.520449 7.561590 -15.412403 -4.314747 -12.929979 -16.464844 -7.632445 26.871761 0.171049 2.487204 56.942279 4.575215 12.003868 -6.901770 18.788451 -2.512072 16.762916 13.314692 -7.118661 
0.019186 0.468501 1.005755 177.838983 -1.583399 83.612051 4.838905 1.835758 7.556693 -5.159678 -4.475091 1.526885 -0.753997 8.894176 -5.168845 0.000000 -0.000000 0.000000 -6.175967 -3.068976 5.756467 3.031995 -1.230080 7.402661 3.759297 -5.031632 -8.183011 0.000000 -0.000000 0.000000 0.328936 0.450453 4.150330 -0.853231 -2.480392 4.690472 -0.899431 -0.116199 -0.317149 2.851076 -0.824889 -3.166865 5.307524 -1.555821 -3.510683 -28.135864 6.237683 -1.797778 -56.441406 -3.852389 6.314478 7.416380 -15.681992 -4.447863 -14.020331 -16.674127 -7.584593 27.155118 0.016908 2.440822 56.653325 4.735241 11.493034 -7.546797 18.501852 -3.653387 17.602473 13.620370 -7.561945 
0.019382 0.468396 1.005919 177.837069 -1.609474 83.531601 4.805442 1.662758 7.594322 -5.173224 -4.285087 1.641897 -0.745007 8.872931 -5.244999 0.000000 -0.000000 0.000000 -6.202918 -3.076948 5.782677 3.006373 -1.320603 7.533539 3.725306 -4.911947 -8.187355 0.000000 -0.000000 0.000000 0.182581 0.505185 4.269351 -0.858440 -2.518226 4.756497 -0.895052 -0.157877 -0.406776 2.944767 -0.648242 -3.373784 5.444523 -1.695851 -3.284247 -27.953948 6.732683 -2.102071 -55.058983 -3.664506 5.600156 7.971154 -18.033990 -5.736604 -14.399567 -17.281433 -8.029193 27.309800 -0.545017 2.075786 55.853697 4.572637 10.604352 -8.699019 20.169005 -5.572718 18.411799 14.521842 -8.180228 
0.019454 0.468035 1.006264 177.955475 -1.590501 83.490888 4.818592 1.697769 7.506329 -5.133359 -4.172189 1.807448 -0.719018 8.535048 -5.257721 0.000000 -0.000000 0.000000 -6.175825 -2.981423 5.803592 2.958604 -1.761670 7.555618 3.630868 -4.701226 -8.087130 0.000000 -0.000000 0.000000 0.016866 0.348489 4.717294 -0.802060 -2.434845 4.211621 -0.789049 -0.265678 -0.226975 3.078643 -0.523533 -3.719277 5.312738 -1.980231 -3.191628 -27.892948 8.352986 -2.513801 -53.413832 -2.894930 3.998127 10.561389 -24.957543 -8.811982 -12.612970 -18.471293 -10.757789 27.495058 -2.069239 1.256877 53.959875 3.921118 9.410990 -11.089543 25.794333 -7.684047 18.249279 15.571943 -9.168778 
0.019785 0.466981 1.006544 177.739450 -1.509721 83.542810 4.864072 1.446400 7.544043 -5.081612 -3.661873 1.588543 -0.657696 8.313421 -5.161990 0.000000 -0.000000 0.000000 -6.067967 -2.837971 5.655438 2.829925 -2.369227 7.484692 3.579862 -4.043133 -7.893519 0.000000 -0.000000 0.000000 -0.199675 0.257055 5.188529 -0.672393 -2.184779 3.473764 -0.564179 -0.302662 0.216559 3.192966 -0.403907 -4.147686 5.154739 -1.990070 -3.239081 -27.735849 10.288664 -3.002610 -51.662704 -2.031779 1.770512 15.101368 -36.135709 -16.030412 -7.052724 -19.706380 -18.673300 27.275414 -3.831093 0.414141 51.597357 3.442928 7.837287 -15.681464 35.019801 -13.316134 13.850127 18.310199 -12.325313 
0.019924 0.466245 1.006928 177.581854 -1.505497 83.635433 4.798279 1.104098 7.475323 -5.010202 -2.910225 1.522399 -0.565588 7.877225 -5.159920 0.000000 -0.000000 0.000000 -6.113357 -2.708222 5.541072 2.778048 -3.089215 7.330906 3.732071 -3.217886 -7.565114 0.000000 -0.000000 0.000000 -0.427180 0.176680 5.293673 -0.539615 -2.037714 3.042868 -0.400298 -0.247916 0.588512 3.368838 0.059349 -4.087342 4.900820 -2.550313 -3.461779 -26.698202 11.926421 -3.621376 -50.461648 -1.882303 -0.141005 24.527501 -48.312139 -25.089312 -2.982988 -21.608540 -23.730218 26.310517 -5.415768 -0.683027 49.562858 3.516797 5.791460 -24.796827 45.849898 -21.142779 9.380551 20.546991 -13.804094 
0.020328 0.464968 1.007061 177.257416 -1.164276 84.207047 5.399280 1.520870 6.637472 -5.123315 -2.175667 1.789269 -2.399685 6.930450 -4.944964 0.000000 -0.000000 0.000000 -5.655301 -3.186572 4.664111 2.648506 -1.860947 7.460292 5.209278 -3.697085 -7.490518 0.000000 -0.000000 0.000000 -0.576646 -0.451312 4.587393 0.349550 -1.400113 2.762942 -0.861523 0.580200 1.153431 4.401488 -0.829791 -5.756574 2.752988 -2.649077 -0.431788 -26.167975 15.762035 -2.457418 -47.581990 -8.609578 0.898096 48.934527 -57.313831 -41.979068 6.730893 -19.531967 -40.429031 26.550488 -9.684586 -1.374358 45.352992 9.322193 6.313409 -46.825280 54.101034 -38.438620 0.706588 21.323291 -25.154547 
0.020003 0.464003 1.007677 176.944916 -1.135103 84.422095 5.248532 1.277897 6.475912 -4.910597 -1.482826 1.579834 -2.457009 6.741605 -4.791764 0.000000 -0.000000 0.000000 -5.604943 -3.062382 4.327975 2.493006 -2.209174 7.298536 5.552787 -3.151516 -7.126906 0.000000 -0.000000 0.000000 -0.542884 -0.425946 4.643986 0.467281 -1.265703 1.727696 -0.896737 0.775149 1.329611 4.665994 -0.721691 -5.347015 2.270387 -2.811009 1.142792 -24.575304 15.778304 -4.116402 -45.437793 -11.218987 -0.496858 69.886573 -58.326005 -62.138425 10.949296 -19.910804 -44.344825 24.914838 -9.525247 -3.076053 42.876564 12.430386 4.340327 -64.855506 54.680853 -55.535923 -2.854319 21.778856 -26.316167 
0.019782 0.464352 1.008213 176.571598 -1.080100 84.625044 5.194553 1.365882 6.503683 -4.754823 -0.954920 1.238270 -2.569258 6.500533 -4.658916 0.000000 -0.000000 0.000000 -5.543468 -2.953395 4.141618 2.432324 -2.325709 7.000322 5.777360 -2.762449 -6.786410 0.000000 -0.000000 0.000000 -0.445582 -0.381320 4.342215 0.565365 -1.159246 1.256663 -0.918897 0.952887 1.091881 4.836805 -0.692655 -4.724752 1.782490 -2.878710 2.697464 -23.334013 14.728308 -5.667163 -42.326492 -13.580827 -2.403172 86.474092 -55.236582 -77.446086 13.317931 -19.898009 -43.658503 23.421033 -8.093535 -4.221545 39.273797 15.188183 1.861110 -79.088586 51.957601 -69.321240 -5.898046 22.589833 -27.141727 
0.019503 0.464924 1.008651 176.526317 -1.087501 84.751042 5.104348 1.229754 6.556469 -4.679668 -0.679262 0.942594 -2.638635 6.357668 -4.433372 0.000000 -0.000000 0.000000 -5.532024 -2.896821 4.156779 2.342712 -2.453023 6.667494 6.051059 -2.597459 -6.523534 0.000000 -0.000000 0.000000 -0.257292 -0.405085 4.401170 0.536744 -1.146953 0.591060 -1.170413 1.052379 0.751363 5.072050 -0.606356 -4.570489 1.628025 -3.000030 4.214035 -22.007077 13.580069 -6.818597 -38.916851 -15.368219 -4.311602 96.302371 -51.189680 -86.119880 15.184542 -20.938772 -44.845907 21.691055 -6.665522 -5.214380 36.926948 17.302018 0.144980 -88.231155 47.883384 -77.766195 -7.483122 23.128047 -28.475631 
